<?xml version="1.0" encoding="UTF-8" standalone="no"?>
<!-- Created with Inkscape (http://www.inkscape.org/) -->

<svg
   xmlns:dc="http://purl.org/dc/elements/1.1/"
   xmlns:cc="http://creativecommons.org/ns#"
   xmlns:rdf="http://www.w3.org/1999/02/22-rdf-syntax-ns#"
   xmlns:svg="http://www.w3.org/2000/svg"
   xmlns="http://www.w3.org/2000/svg"
   xmlns:sodipodi="http://sodipodi.sourceforge.net/DTD/sodipodi-0.dtd"
   xmlns:inkscape="http://www.inkscape.org/namespaces/inkscape"
   width="744.09448819"
   height="1052.3622047"
   id="svg3058"
   version="1.1"
   inkscape:version="0.48.5 r10040"
   sodipodi:docname="New document 5">
  <defs
     id="defs3060" />
  <sodipodi:namedview
     id="base"
     pagecolor="#ffffff"
     bordercolor="#666666"
     borderopacity="1.0"
     inkscape:pageopacity="0.0"
     inkscape:pageshadow="2"
     inkscape:zoom="0.35"
     inkscape:cx="375"
     inkscape:cy="520"
     inkscape:document-units="px"
     inkscape:current-layer="layer1"
     showgrid="false"
     inkscape:window-width="1127"
     inkscape:window-height="681"
     inkscape:window-x="26"
     inkscape:window-y="54"
     inkscape:window-maximized="0" />
  <metadata
     id="metadata3063">
    <rdf:RDF>
      <cc:Work
         rdf:about="">
        <dc:format>image/svg+xml</dc:format>
        <dc:type
           rdf:resource="http://purl.org/dc/dcmitype/StillImage" />
        <dc:title></dc:title>
      </cc:Work>
    </rdf:RDF>
  </metadata>
  <g
     inkscape:label="Layer 1"
     inkscape:groupmode="layer"
     id="layer1">
    <g
       id="g3111"
       transform="translate(45.714286,-2.8571429)">
      <path
         d="m 614.28574,540.93359 c 0,159.37361 -133.67499,288.57145 -298.57145,288.57145 -164.89645,0 -298.571437,-129.19784 -298.571437,-288.57145 0,-159.3736 133.674987,-288.57144 298.571437,-288.57144 164.89646,0 298.57145,129.19784 298.57145,288.57144 z"
         sodipodi:ry="288.57144"
         sodipodi:rx="298.57144"
         sodipodi:cy="540.93359"
         sodipodi:cx="315.71429"
         id="path3066"
         style="fill:#803300"
         sodipodi:type="arc" />
      <path
         transform="translate(962.85714,-65.714286)"
         d="m -720.00003,438.07648 c 0,22.09139 -16.62942,40 -37.14285,40 -20.51344,0 -37.14286,-17.90861 -37.14286,-40 0,-22.09139 16.62942,-40 37.14286,-40 20.51343,0 37.14285,17.90861 37.14285,40 z"
         sodipodi:ry="40"
         sodipodi:rx="37.142857"
         sodipodi:cy="438.07648"
         sodipodi:cx="-757.14288"
         id="path3068"
         style="fill:#000000"
         sodipodi:type="arc" />
      <path
         transform="translate(1074.2857,-28.571438)"
         d="m -720.00003,438.07648 c 0,22.09139 -16.62942,40 -37.14285,40 -20.51344,0 -37.14286,-17.90861 -37.14286,-40 0,-22.09139 16.62942,-40 37.14286,-40 20.51343,0 37.14285,17.90861 37.14285,40 z"
         sodipodi:ry="40"
         sodipodi:rx="37.142857"
         sodipodi:cy="438.07648"
         sodipodi:cx="-757.14288"
         id="path3068-3"
         style="fill:#000000"
         sodipodi:type="arc" />
      <path
         transform="translate(994.2857,42.857134)"
         d="m -720.00003,438.07648 c 0,22.09139 -16.62942,40 -37.14285,40 -20.51344,0 -37.14286,-17.90861 -37.14286,-40 0,-22.09139 16.62942,-40 37.14286,-40 20.51343,0 37.14285,17.90861 37.14285,40 z"
         sodipodi:ry="40"
         sodipodi:rx="37.142857"
         sodipodi:cy="438.07648"
         sodipodi:cx="-757.14288"
         id="path3068-5"
         style="fill:#000000"
         sodipodi:type="arc" />
      <path
         inkscape:connector-curvature="0"
         id="path3095"
         d="m 74.285714,583.79075 c 2.857143,3.80953 12.380953,8.57143 8.571429,11.42858 -3.809524,2.85714 -11.938604,-14.79575 -8.571429,-11.42858 4.312088,4.31209 8.045891,9.2117 11.428572,14.28572 0.528286,0.79243 -0.673435,2.18371 0,2.85714 0.673435,0.67344 2.183708,-0.67343 2.857143,0 5.91153,5.91153 -9.033602,-0.23109 2.857142,5.71429 0.851836,0.42591 2.183708,-0.67344 2.857143,0 1.428572,1.42857 -1.428571,7.14285 0,8.57143 1.34687,1.34687 4.010615,-0.85184 5.714286,0 1.70367,0.85183 -1.34687,4.36741 0,5.71428 0.67344,0.67344 2.18371,-0.67343 2.85714,0 1.34687,1.34687 -1.34687,4.36742 0,5.71429 0.67344,0.67343 2.18371,-0.67344 2.85715,0 1.34687,1.34687 -1.34687,4.36741 0,5.71428 0.67343,0.67344 2.1837,-0.67343 2.85714,0 1.34687,1.34687 -1.34687,4.36742 0,5.71429 0.67343,0.67343 2.18371,-0.67344 2.85714,0 1.34687,1.34687 -0.85183,4.01061 0,5.71428 0.60234,1.20468 2.25481,1.65247 2.85714,2.85715 0.85184,1.70367 -1.34687,4.36741 0,5.71428 0.67344,0.67344 2.18371,-0.67343 2.85715,0 1.34687,1.34687 -1.34687,4.36742 0,5.71429 0.67343,0.67343 2.1837,-0.67344 2.85714,0 1.34687,1.34687 -1.34687,4.36741 0,5.71428 0.67344,0.67344 2.18371,-0.67343 2.85714,0 1.34687,1.34687 -1.34687,4.36742 0,5.71429 0.67344,0.67343 2.18371,-0.67344 2.85715,0 0,7.61905 -0.95239,-0.95238 2.85714,2.85714 0.67343,0.67344 -0.67344,2.18371 0,2.85715 0.67343,0.67343 2.18371,-0.67344 2.85714,0 1.34687,1.34687 -1.34687,4.36741 0,5.71428 0.67344,0.67344 2.18371,-0.67343 2.85714,0 1.42858,1.42857 -1.42857,7.14286 0,8.57143 1.42858,1.42857 7.14286,-1.42857 8.57143,0 1.34687,1.34687 -0.85183,4.01061 0,5.71429 5.94537,11.89074 -0.19724,-3.05439 5.71429,2.85714 1.34687,1.34687 -1.34687,4.36741 0,5.71428 0.67343,0.67344 2.18371,-0.67343 2.85714,0 0.67344,0.67344 0,1.90477 0,2.85715 0.95238,0 2.18371,-0.67344 2.85714,0 1.86408,1.86407 -1.86407,3.8502 0,5.71428 3.80953,3.80953 2.85715,-4.7619 2.85715,2.85715"
         style="fill:none;stroke:#000000;stroke-width:1px;stroke-linecap:butt;stroke-linejoin:miter;stroke-opacity:1" />
      <path
         inkscape:connector-curvature="0"
         id="path3097"
         d="m 222.85714,606.6479 c 20.57423,1.17721 3.02055,11.75537 5.71429,17.14285 0.60234,1.20468 2.2548,1.65247 2.85714,2.85715 0.85184,1.70367 -1.34687,4.36741 0,5.71428 0.67344,0.67344 2.18371,-0.67343 2.85714,0 1.34687,1.34687 -1.34687,4.36742 0,5.71429 0.67344,0.67343 2.18371,-0.67344 2.85715,0 1.34687,1.34687 -0.85184,4.01061 0,5.71428 0.60234,1.20468 2.2548,1.65247 2.85714,2.85715 0.85184,1.70367 -1.34687,4.36741 0,5.71428 0.67344,0.67344 2.43123,-0.85183 2.85714,0 0.52165,1.04329 -0.55611,13.7296 0,14.28572 0.67344,0.67343 2.18371,-0.67344 2.85715,0 1.42857,1.42857 -1.42858,7.14285 0,8.57143 0.67343,0.67343 2.1837,-0.67344 2.85714,0 0.5841,0.5841 -0.56642,7.43859 0,8.57142 0.60234,1.20468 2.2548,1.65247 2.85714,2.85715 0.85184,1.70367 -1.34687,4.36741 0,5.71428 0.67344,0.67344 2.18371,-0.67343 2.85714,0 1.34687,1.34687 -1.34687,4.36742 0,5.71429 0.67344,0.67343 2.43123,-0.85184 2.85715,0 0.85183,1.70367 0,3.80952 0,5.71428 1.90476,1.90477 4.22006,3.47296 5.71428,5.71429 0.52829,0.79243 0,1.90476 0,2.85714 0,1.90476 -0.85183,4.01062 0,5.71429 -7.05031,8.64995 7.77161,4.91446 8.57143,5.71428 0.67344,0.67344 -0.42592,2.00531 0,2.85715 0.60234,1.20467 2.25481,1.65246 2.85714,2.85714 0.42592,0.85184 -0.67343,2.18371 0,2.85714 0.67344,0.67344 2.18371,-0.67343 2.85715,0 1.92,1.92 -1.92,3.79429 0,5.71429 0.67343,0.67343 2.1837,-0.67344 2.85714,0 1.34687,1.34687 -1.34687,4.36741 0,5.71428 0.67344,0.67344 2.18371,-0.67343 2.85714,0 1.92,1.92 -1.92,3.79429 0,5.71429 0.67344,0.67343 2.18371,-0.67344 2.85715,0 0.67343,0.67343 -0.42592,2.00531 0,2.85714 0.60233,1.20468 2.2548,1.65247 2.85714,2.85715 1.90476,3.80952 -2.85714,2.85714 2.85714,2.85714"
         style="fill:none;stroke:#000000;stroke-width:1px;stroke-linecap:butt;stroke-linejoin:miter;stroke-opacity:1" />
      <path
         inkscape:connector-curvature="0"
         id="path3099"
         d="m 314.28571,606.6479 c 2.01157,0.82278 -1.11867,16.64397 0,20 0.42592,1.27775 2.25481,1.65246 2.85715,2.85714 0.85183,1.70367 -0.85184,4.01061 0,5.71429 0.60234,1.20467 2.2548,1.65246 2.85714,2.85714 0.91148,1.82297 -0.87871,12.5283 0,14.28571 0.42592,0.85184 2.18371,-0.67343 2.85714,0 0.68752,0.68752 -0.68751,10.74106 0,11.42857 0.67344,0.67344 2.18371,-0.67343 2.85715,0 0.76385,0.76385 -0.91124,12.46324 0,14.28572 0.60233,1.20468 2.2548,1.65246 2.85714,2.85714 0.42592,0.85184 0,1.90476 0,2.85714 0,1.90477 -0.85184,4.01062 0,5.71429 0.42592,0.85184 2.18371,-0.67344 2.85714,0 0.67344,0.67343 0,1.90476 0,2.85714 0,0.69294 -0.0919,8.47955 0,8.57143 0.67344,0.67344 1.90476,0 2.85714,0"
         style="fill:none;stroke:#000000;stroke-width:1px;stroke-linecap:butt;stroke-linejoin:miter;stroke-opacity:1" />
      <path
         inkscape:connector-curvature="0"
         id="path3101"
         d="m 394.28571,598.07647 c 0,6.66666 0,13.33333 0,20 0,0.95238 -0.42591,2.00531 0,2.85714 0.60234,1.20468 2.25481,1.65247 2.85715,2.85714 0.42591,0.85184 0,1.90477 0,2.85715 0,0.95238 0,1.90476 0,2.85714 0,4.7619 0,9.52381 0,14.28571 0,1.87745 -0.53733,6.95944 0,8.57143 0.67343,2.02031 2.1837,3.69398 2.85714,5.71429 0.53733,1.61199 0,6.69398 0,8.57143 0,5.71428 0,11.42857 0,17.14285 0,14.28572 0,28.57143 0,42.85715"
         style="fill:none;stroke:#000000;stroke-width:1px;stroke-linecap:butt;stroke-linejoin:miter;stroke-opacity:1" />
      <path
         inkscape:connector-curvature="0"
         id="path3103"
         d="m 474.28571,492.36218 c 1.90477,3.80953 9.52381,9.52381 5.71429,11.42857 -3.80952,1.90477 -8.72598,-14.44026 -5.71429,-11.42857 2.85715,4.76191 5.71429,9.52381 8.57143,14.28572 0,0.95238 -0.42591,2.0053 0,2.85714 0.60234,1.20468 2.25481,1.65247 2.85715,2.85714 0.42591,0.85184 -0.42592,2.00531 0,2.85715 0.60233,1.20467 2.2548,1.65246 2.85714,2.85714 0.85183,1.70367 -0.85184,4.01061 0,5.71428 0.60234,1.20468 2.2548,1.65247 2.85714,2.85715 0.90671,1.81342 -0.92628,13.35943 0,14.28571 0.67344,0.67344 2.18371,-0.67343 2.85714,0 0.82561,0.8256 -0.87712,10.11288 0,11.42857 1.49422,2.24133 4.50961,3.30493 5.71429,5.71429 0.33593,0.67186 0,9.55165 0,11.42857 0,0.95238 -0.85184,2.43122 0,2.85714 1.70367,0.85184 4.36742,-1.34687 5.71429,0 1.34687,1.34687 0,3.80953 0,5.71429 0,11.42857 0,22.85714 0,34.28571 0,0.95238 0,1.90476 0,2.85715 0,1.90476 -1.34687,4.36741 0,5.71428 1.34687,1.34687 4.01061,-0.85183 5.71428,0 0.28849,0.14424 0,8.29874 0,11.42857 0,4.76191 0,9.52381 0,14.28572 0,0.95238 -0.67343,2.1837 0,2.85714 4.76191,4.7619 2.85714,-10.47619 2.85714,5.71429"
         style="fill:none;stroke:#000000;stroke-width:1px;stroke-linecap:butt;stroke-linejoin:miter;stroke-opacity:1" />
    </g>
  </g>
</svg>
